name analog
datacolumns 19
datarows 78
range 0.6075 0.646
endheader
time	ground_force_vx	ground_force_vy	ground_force_vz	ground_force_px	ground_force_py	ground_force_pz	l_ground_force_vx	l_ground_force_vy	l_ground_force_vz	l_ground_force_px	l_ground_force_py	l_ground_force_pz	ground_torque_x	ground_torque_y	ground_torque_z	l_ground_torque_x	l_ground_torque_y	l_ground_torque_z
0.6075	-0.0	-0.0	-0.0	-0.71368408203125	-5.719326019287109	-620.2037353515625	-0.0	-0.0	-0.0	-0.0	-0.0	-0.0	-0.0	-0.0	-0.0	-0.0	-0.0	-0.0
0.608	-0.0	-0.0	-0.0	-0.5352630615234375	-6.030564308166504	-619.4576416015625	-0.0	-0.0	-0.0	-0.0	-0.0	-0.0	-0.0	-0.0	-0.0	-0.0	-0.0	-0.0
0.6085	-0.0	-0.0	-0.0	-0.372225821018219	-6.144874572753906	-622.0595092773438	-0.0	-0.0	-0.0	-0.0	-0.0	-0.0	-0.0	-0.0	-0.0	-0.0	-0.0	-0.0
0.609	-0.0	-0.0	-0.0	-0.5249273777008057	-5.651357650756836	-621.20263671875	-0.0	-0.0	-0.0	-0.0	-0.0	-0.0	-0.0	-0.0	-0.0	-0.0	-0.0	-0.0
0.6095	-0.0	-0.0	-0.0	-1.0548039674758911	-6.191885948181152	-620.828125	-0.0	-0.0	-0.0	-0.0	-0.0	-0.0	-0.0	-0.0	-0.0	-0.0	-0.0	-0.0
0.61	-0.0	-0.0	-0.0	-1.175581693649292	-6.705887794494629	-621.9498291015625	-0.0	-0.0	-0.0	-0.0	-0.0	-0.0	-0.0	-0.0	-0.0	-0.0	-0.0	-0.0
0.6105	-0.0	-0.0	-0.0	-1.3114664554595947	-6.265795230865479	-620.6216430664062	-0.0	-0.0	-0.0	-0.0	-0.0	-0.0	-0.0	-0.0	-0.0	-0.0	-0.0	-0.0
0.611	-0.0	-0.0	-0.0	-0.7353284358978271	-6.411982536315918	-622.3245239257812	-0.0	-0.0	-0.0	-0.0	-0.0	-0.0	-0.0	-0.0	-0.0	-0.0	-0.0	-0.0
0.6115	-0.0	-0.0	-0.0	0.1402643322944641	-6.38471269607544	-622.5267944335938	-0.0	-0.0	-0.0	-0.0	-0.0	-0.0	-0.0	-0.0	-0.0	-0.0	-0.0	-0.0
0.612	-0.0	-0.0	-0.0	-0.5970159769058228	-5.982709884643555	-622.1019897460938	-0.0	-0.0	-0.0	-0.0	-0.0	-0.0	-0.0	-0.0	-0.0	-0.0	-0.0	-0.0
0.6125	-0.0	-0.0	-0.0	-0.5966516733169556	-5.877047061920166	-625.4596557617188	-0.0	-0.0	-0.0	-0.0	-0.0	-0.0	-0.0	-0.0	-0.0	-0.0	-0.0	-0.0
0.613	-0.0	-0.0	-0.0	-0.6188525557518005	-5.632063388824463	-624.4443969726562	-0.0	-0.0	-0.0	-0.0	-0.0	-0.0	-0.0	-0.0	-0.0	-0.0	-0.0	-0.0
0.6135	-0.0	-0.0	-0.0	-0.6909084916114807	-6.216372966766357	-624.4446411132812	-0.0	-0.0	-0.0	-0.0	-0.0	-0.0	-0.0	-0.0	-0.0	-0.0	-0.0	-0.0
0.614	-0.0	-0.0	-0.0	-0.6130052208900452	-5.715803623199463	-625.390869140625	-0.0	-0.0	-0.0	-0.0	-0.0	-0.0	-0.0	-0.0	-0.0	-0.0	-0.0	-0.0
0.6145	-0.0	-0.0	-0.0	-0.5236818194389343	-6.822543144226074	-626.1192016601562	-0.0	-0.0	-0.0	-0.0	-0.0	-0.0	-0.0	-0.0	-0.0	-0.0	-0.0	-0.0
0.615	-0.0	-0.0	-0.0	-1.784210205078125	-6.310683727264404	-627.270751953125	-0.0	-0.0	-0.0	-0.0	-0.0	-0.0	-0.0	-0.0	-0.0	-0.0	-0.0	-0.0
0.6155	-0.0	-0.0	-0.0	-2.9380433559417725	-7.641622066497803	-627.0112915039062	-0.0	-0.0	-0.0	-0.0	-0.0	-0.0	-0.0	-0.0	-0.0	-0.0	-0.0	-0.0
0.616	-0.0	-0.0	-0.0	-3.764721155166626	-7.498862743377685	-627.9776000976562	-0.0	-0.0	-0.0	-0.0	-0.0	-0.0	-0.0	-0.0	-0.0	-0.0	-0.0	-0.0
0.6165	-0.0	-0.0	-0.0	-4.953559398651123	-7.36293888092041	-630.2828369140625	-0.0	-0.0	-0.0	-0.0	-0.0	-0.0	-0.0	-0.0	-0.0	-0.0	-0.0	-0.0
0.617	-0.0	-0.0	-0.0	-4.5922441482543945	-8.72871208190918	-629.318603515625	-0.0	-0.0	-0.0	-0.0	-0.0	-0.0	-0.0	-0.0	-0.0	-0.0	-0.0	-0.0
0.6175	-0.0	-0.0	-0.0	-5.380386829376221	-9.595383644104004	-631.3154296875	-0.0	-0.0	-0.0	-0.0	-0.0	-0.0	-0.0	-0.0	-0.0	-0.0	-0.0	-0.0
0.618	-0.0	-0.0	-0.0	-5.020530700683594	-9.46636199951172	-631.2060546875	-0.0	-0.0	-0.0	-0.0	-0.0	-0.0	-0.0	-0.0	-0.0	-0.0	-0.0	-0.0
0.6185	-0.0	-0.0	-0.0	-5.8504414558410645	-9.963895797729492	-633.83447265625	-0.0	-0.0	-0.0	-0.0	-0.0	-0.0	-0.0	-0.0	-0.0	-0.0	-0.0	-0.0
0.619	-0.0	-0.0	-0.0	-4.664206027984619	-10.135628700256348	-633.8079833984375	-0.0	-0.0	-0.0	-0.0	-0.0	-0.0	-0.0	-0.0	-0.0	-0.0	-0.0	-0.0
0.6195	-0.0	-0.0	-0.0	-3.6001977920532227	-10.052685737609863	-632.9487915039062	-0.0	-0.0	-0.0	-0.0	-0.0	-0.0	-0.0	-0.0	-0.0	-0.0	-0.0	-0.0
0.62	-0.0	-0.0	-0.0	-2.7911739349365234	-8.690492630004883	-632.3929443359375	-0.0	-0.0	-0.0	-0.0	-0.0	-0.0	-0.0	-0.0	-0.0	-0.0	-0.0	-0.0
0.6205	-0.0	-0.0	-0.0	-2.4784395694732666	-8.524123191833496	-628.9877319335938	-0.0	-0.0	-0.0	-0.0	-0.0	-0.0	-0.0	-0.0	-0.0	-0.0	-0.0	-0.0
0.621	-0.0	-0.0	-0.0	-2.44130802154541	-7.817399501800537	-625.8865356445312	-0.0	-0.0	-0.0	-0.0	-0.0	-0.0	-0.0	-0.0	-0.0	-0.0	-0.0	-0.0
0.6215	-0.0	-0.0	-0.0	-3.095977067947388	-6.245719909667969	-623.33642578125	-0.0	-0.0	-0.0	-0.0	-0.0	-0.0	-0.0	-0.0	-0.0	-0.0	-0.0	-0.0
0.622	-0.0	-0.0	-0.0	-3.0597078800201416	-5.067169666290283	-620.5108032226562	-0.0	-0.0	-0.0	-0.0	-0.0	-0.0	-0.0	-0.0	-0.0	-0.0	-0.0	-0.0
0.6225	-0.0	-0.0	-0.0	-3.773618221282959	-3.941802263259888	-618.117919921875	-0.0	-0.0	-0.0	-0.0	-0.0	-0.0	-0.0	-0.0	-0.0	-0.0	-0.0	-0.0
0.623	-0.0	-0.0	-0.0	-4.357780933380127	-3.099281072616577	-617.3317260742188	-0.0	-0.0	-0.0	-0.0	-0.0	-0.0	-0.0	-0.0	-0.0	-0.0	-0.0	-0.0
0.6235	-0.0	-0.0	-0.0	-4.570157051086426	-1.8717384338378904	-615.9727172851562	-0.0	-0.0	-0.0	-0.0	-0.0	-0.0	-0.0	-0.0	-0.0	-0.0	-0.0	-0.0
0.624	-0.0	-0.0	-0.0	-5.31144905090332	-0.3633790612220764	-615.5654907226562	-0.0	-0.0	-0.0	-0.0	-0.0	-0.0	-0.0	-0.0	-0.0	-0.0	-0.0	-0.0
0.6245	-0.0	-0.0	-0.0	-5.8878936767578125	0.1099211573600769	-613.6931762695312	-0.0	-0.0	-0.0	-0.0	-0.0	-0.0	-0.0	-0.0	-0.0	-0.0	-0.0	-0.0
0.625	-0.0	-0.0	-0.0	-6.622507095336914	0.3983422219753265	-614.5606689453125	-0.0	-0.0	-0.0	-0.0	-0.0	-0.0	-0.0	-0.0	-0.0	-0.0	-0.0	-0.0
0.6255000000000001	-0.0	-0.0	-0.0	-7.336409568786621	1.1234807968139648	-616.8937377929688	-0.0	-0.0	-0.0	-0.0	-0.0	-0.0	-0.0	-0.0	-0.0	-0.0	-0.0	-0.0
0.626	-0.0	-0.0	-0.0	-8.186100006103516	0.6097474098205566	-615.3798217773438	-0.0	-0.0	-0.0	-0.0	-0.0	-0.0	-0.0	-0.0	-0.0	-0.0	-0.0	-0.0
0.6265000000000001	-0.0	-0.0	-0.0	-8.243094444274902	-0.0677130222320556	-620.07080078125	-0.0	-0.0	-0.0	-0.0	-0.0	-0.0	-0.0	-0.0	-0.0	-0.0	-0.0	-0.0
0.627	-0.0	-0.0	-0.0	-8.057819366455078	-0.8696682453155518	-621.2149658203125	-0.0	-0.0	-0.0	-0.0	-0.0	-0.0	-0.0	-0.0	-0.0	-0.0	-0.0	-0.0
0.6275000000000001	-0.0	-0.0	-0.0	-7.790347576141357	-0.8094253540039062	-620.2701416015625	-0.0	-0.0	-0.0	-0.0	-0.0	-0.0	-0.0	-0.0	-0.0	-0.0	-0.0	-0.0
0.628	-0.0	-0.0	-0.0	-7.366464614868164	-0.942460834980011	-621.6835327148438	-0.0	-0.0	-0.0	-0.0	-0.0	-0.0	-0.0	-0.0	-0.0	-0.0	-0.0	-0.0
0.6285000000000001	-0.0	-0.0	-0.0	-7.069792747497559	-1.9387260675430296	-623.3040771484375	-0.0	-0.0	-0.0	-0.0	-0.0	-0.0	-0.0	-0.0	-0.0	-0.0	-0.0	-0.0
0.629	-0.0	-0.0	-0.0	-7.203769207000732	-2.8299107551574707	-624.0101318359375	-0.0	-0.0	-0.0	-0.0	-0.0	-0.0	-0.0	-0.0	-0.0	-0.0	-0.0	-0.0
0.6295000000000001	-0.0	-0.0	-0.0	-7.552892208099365	-3.10457706451416	-622.3624877929688	-0.0	-0.0	-0.0	-0.0	-0.0	-0.0	-0.0	-0.0	-0.0	-0.0	-0.0	-0.0
0.63	-0.0	-0.0	-0.0	-7.121760368347168	-4.092464923858643	-619.2139282226562	-0.0	-0.0	-0.0	-0.0	-0.0	-0.0	-0.0	-0.0	-0.0	-0.0	-0.0	-0.0
0.6305000000000001	-0.0	-0.0	-0.0	-7.032436847686768	-4.285849094390869	-616.592041015625	-0.0	-0.0	-0.0	-0.0	-0.0	-0.0	-0.0	-0.0	-0.0	-0.0	-0.0	-0.0
0.631	-0.0	-0.0	-0.0	-6.920072078704834	-4.960651874542236	-614.5027465820312	-0.0	-0.0	-0.0	-0.0	-0.0	-0.0	-0.0	-0.0	-0.0	-0.0	-0.0	-0.0
0.6315000000000001	-0.0	-0.0	-0.0	-6.058605194091797	-6.452600955963135	-610.0638427734375	-0.0	-0.0	-0.0	-0.0	-0.0	-0.0	-0.0	-0.0	-0.0	-0.0	-0.0	-0.0
0.632	-0.0	-0.0	-0.0	-5.814215183258057	-6.855281829833984	-606.76318359375	-0.0	-0.0	-0.0	-0.0	-0.0	-0.0	-0.0	-0.0	-0.0	-0.0	-0.0	-0.0
0.6325000000000001	-0.0	-0.0	-0.0	-5.7251505851745605	-7.421319007873535	-603.2313232421875	-0.0	-0.0	-0.0	-0.0	-0.0	-0.0	-0.0	-0.0	-0.0	-0.0	-0.0	-0.0
0.633	-0.0	-0.0	-0.0	-5.950924873352051	-8.06896686553955	-599.5022583007812	-0.0	-0.0	-0.0	-0.0	-0.0	-0.0	-0.0	-0.0	-0.0	-0.0	-0.0	-0.0
0.6335000000000001	-0.0	-0.0	-0.0	-6.278284072875977	-8.572407722473145	-594.1431274414062	-0.0	-0.0	-0.0	-0.0	-0.0	-0.0	-0.0	-0.0	-0.0	-0.0	-0.0	-0.0
0.634	-0.0	-0.0	-0.0	-6.88519287109375	-8.029720306396484	-589.3256225585938	-0.0	-0.0	-0.0	-0.0	-0.0	-0.0	-0.0	-0.0	-0.0	-0.0	-0.0	-0.0
0.6345000000000001	-0.0	-0.0	-0.0	-6.885305404663086	-8.694575309753418	-585.7635498046875	-0.0	-0.0	-0.0	-0.0	-0.0	-0.0	-0.0	-0.0	-0.0	-0.0	-0.0	-0.0
0.635	-0.0	-0.0	-0.0	-7.080114364624023	-8.151434898376465	-584.3842163085938	-0.0	-0.0	-0.0	-0.0	-0.0	-0.0	-0.0	-0.0	-0.0	-0.0	-0.0	-0.0
0.6355000000000001	-0.0	-0.0	-0.0	-7.161323547363281	-8.046196937561035	-581.0132446289062	-0.0	-0.0	-0.0	-0.0	-0.0	-0.0	-0.0	-0.0	-0.0	-0.0	-0.0	-0.0
0.636	-0.0	-0.0	-0.0	-7.315261840820312	-7.38140344619751	-577.579345703125	-0.0	-0.0	-0.0	-0.0	-0.0	-0.0	-0.0	-0.0	-0.0	-0.0	-0.0	-0.0
0.6365000000000001	-0.0	-0.0	-0.0	-7.599473476409912	-6.344823837280273	-573.3751831054688	-0.0	-0.0	-0.0	-0.0	-0.0	-0.0	-0.0	-0.0	-0.0	-0.0	-0.0	-0.0
0.637	-0.0	-0.0	-0.0	-7.761314392089844	-5.729313850402832	-572.85791015625	-0.0	-0.0	-0.0	-0.0	-0.0	-0.0	-0.0	-0.0	-0.0	-0.0	-0.0	-0.0
0.6375000000000001	-0.0	-0.0	-0.0	-7.237676620483398	-5.509294033050537	-570.8052978515625	-0.0	-0.0	-0.0	-0.0	-0.0	-0.0	-0.0	-0.0	-0.0	-0.0	-0.0	-0.0
0.638	-0.0	-0.0	-0.0	-7.922848224639893	-5.16112756729126	-569.3260498046875	-0.0	-0.0	-0.0	-0.0	-0.0	-0.0	-0.0	-0.0	-0.0	-0.0	-0.0	-0.0
0.6385000000000001	-0.0	-0.0	-0.0	-7.102841377258301	-4.702719211578369	-568.1991577148438	-0.0	-0.0	-0.0	-0.0	-0.0	-0.0	-0.0	-0.0	-0.0	-0.0	-0.0	-0.0
0.639	-0.0	-0.0	-0.0	-7.208905696868896	-4.902172088623047	-565.8961181640625	-0.0	-0.0	-0.0	-0.0	-0.0	-0.0	-0.0	-0.0	-0.0	-0.0	-0.0	-0.0
0.6395000000000001	-0.0	-0.0	-0.0	-6.653253555297852	-4.813041687011719	-564.8029174804688	-0.0	-0.0	-0.0	-0.0	-0.0	-0.0	-0.0	-0.0	-0.0	-0.0	-0.0	-0.0
0.64	-0.0	-0.0	-0.0	-6.64744234085083	-4.51100492477417	-564.0283203125	-0.0	-0.0	-0.0	-0.0	-0.0	-0.0	-0.0	-0.0	-0.0	-0.0	-0.0	-0.0
0.6405	-0.0	-0.0	-0.0	-5.5485358238220215	-4.8672356605529785	-560.9881591796875	-0.0	-0.0	-0.0	-0.0	-0.0	-0.0	-0.0	-0.0	-0.0	-0.0	-0.0	-0.0
0.641	-0.0	-0.0	-0.0	-5.941976547241211	-5.267467498779297	-560.3922729492188	-0.0	-0.0	-0.0	-0.0	-0.0	-0.0	-0.0	-0.0	-0.0	-0.0	-0.0	-0.0
0.6415	-0.0	-0.0	-0.0	-5.959394931793213	-5.570318698883057	-558.5877685546875	-0.0	-0.0	-0.0	-0.0	-0.0	-0.0	-0.0	-0.0	-0.0	-0.0	-0.0	-0.0
0.642	-0.0	-0.0	-0.0	-6.012946605682373	-6.43516206741333	-556.9999389648438	-0.0	-0.0	-0.0	-0.0	-0.0	-0.0	-0.0	-0.0	-0.0	-0.0	-0.0	-0.0
0.6425	-0.0	-0.0	-0.0	-5.432588577270508	-7.00583028793335	-556.5761108398438	-0.0	-0.0	-0.0	-0.0	-0.0	-0.0	-0.0	-0.0	-0.0	-0.0	-0.0	-0.0
0.643	-0.0	-0.0	-0.0	-4.834385395050049	-7.558052062988281	-555.0559692382812	-0.0	-0.0	-0.0	-0.0	-0.0	-0.0	-0.0	-0.0	-0.0	-0.0	-0.0	-0.0
0.6435	-0.0	-0.0	-0.0	-4.1127471923828125	-7.567028522491455	-554.5284423828125	-0.0	-0.0	-0.0	-0.0	-0.0	-0.0	-0.0	-0.0	-0.0	-0.0	-0.0	-0.0
0.644	-0.0	-0.0	-0.0	-4.272984027862549	-7.710775852203369	-557.5989379882812	-0.0	-0.0	-0.0	-0.0	-0.0	-0.0	-0.0	-0.0	-0.0	-0.0	-0.0	-0.0
0.6445	-0.0	-0.0	-0.0	-4.371315002441406	-8.344237327575684	-555.515625	-0.0	-0.0	-0.0	-0.0	-0.0	-0.0	-0.0	-0.0	-0.0	-0.0	-0.0	-0.0
0.645	-0.0	-0.0	-0.0	-4.638946533203125	-8.673323631286621	-556.611572265625	-0.0	-0.0	-0.0	-0.0	-0.0	-0.0	-0.0	-0.0	-0.0	-0.0	-0.0	-0.0
0.6455	-0.0	-0.0	-0.0	-4.352703094482422	-8.7440767288208	-560.1065673828125	-0.0	-0.0	-0.0	-0.0	-0.0	-0.0	-0.0	-0.0	-0.0	-0.0	-0.0	-0.0
0.646	-0.0	-0.0	-0.0	-4.878539085388184	-8.833248138427734	-561.7041625976562	-0.0	-0.0	-0.0	-0.0	-0.0	-0.0	-0.0	-0.0	-0.0	-0.0	-0.0	-0.0
